<svg width="65" height="64" viewBox="0 0 65 64" fill="none" xmlns="http://www.w3.org/2000/svg">
<path d="M61.3 0H2.7C1.2 0 0 1.2 0 2.7V61.4C0 62.8 1.2 64 2.7 64H61.4C62.9 64 64.1 62.8 64.1 61.3V2.7C64 1.2 62.8 0 61.3 0ZM19 54.5H9.5V24H19V54.5ZM14.2 19.8C11.2 19.8 8.7 17.3 8.7 14.3C8.7 11.3 11.2 8.8 14.2 8.8C17.2 8.8 19.7 11.3 19.7 14.3C19.7 17.4 17.3 19.8 14.2 19.8ZM54.5 54.5H45V39.7C45 36.2 44.9 31.6 40.1 31.6C35.2 31.6 34.4 35.5 34.4 39.4V54.5H24.9V24H34V28.2H34.1C35.4 25.8 38.5 23.3 43.1 23.3C52.7 23.3 54.5 29.6 54.5 37.8V54.5Z" fill="black"/>
</svg>
