<svg width="64" height="64" viewBox="0 0 64 64" fill="none" xmlns="http://www.w3.org/2000/svg">
<path fill-rule="evenodd" clip-rule="evenodd" d="M31.9979 0.790233C14.3285 0.790233 0 15.117 0 32.7921C0 46.9289 9.16808 58.9228 21.8851 63.1548C23.4852 63.4483 24.0692 62.4604 24.0692 61.6123C24.0692 60.8527 24.0415 58.8403 24.026 56.1698C15.1247 58.1036 13.2465 51.8803 13.2465 51.8803C11.7914 48.1835 9.69359 47.1994 9.69359 47.1994C6.78816 45.2139 9.91341 45.2542 9.91341 45.2542C13.1247 45.4805 14.8149 48.5519 14.8149 48.5519C17.6695 53.442 22.3044 52.0299 24.1278 51.2108C24.4185 49.1428 25.2452 47.7327 26.1594 46.9328C19.0536 46.1252 11.5834 43.3799 11.5834 31.1174C11.5834 27.624 12.8302 24.7675 14.8772 22.5306C14.5481 21.721 13.45 18.4675 15.1909 14.0618C15.1909 14.0618 17.8777 13.2014 23.9907 17.3423C26.5431 16.6325 29.2805 16.2776 32.0019 16.2652C34.7193 16.2776 37.457 16.6325 40.0131 17.3423C46.1223 13.2014 48.8042 14.0618 48.8042 14.0618C50.55 18.4675 49.4517 21.721 49.1227 22.5306C51.1735 24.7675 52.4119 27.624 52.4119 31.1174C52.4119 43.4105 44.9301 46.1156 37.8013 46.9078C38.9503 47.8957 39.9738 49.8488 39.9738 52.8338C39.9738 57.1118 39.9345 60.5631 39.9345 61.6123C39.9345 62.468 40.5109 63.4636 42.1349 63.1511C54.8396 58.9112 64 46.9251 64 32.7921C64 15.117 49.6713 0.790233 31.9979 0.790233Z" fill="black"/>
</svg>
