<svg width="77" height="64" viewBox="0 0 77 64" fill="none" xmlns="http://www.w3.org/2000/svg">
<path d="M40.8742 39.04C40.1162 39.4577 39.2648 39.6768 38.3994 39.6768C37.5339 39.6768 36.6825 39.4577 35.9245 39.04L0 19.2218V56.32C0.00203319 58.3562 0.811827 60.3085 2.25167 61.7483C3.6915 63.1882 5.64376 63.998 7.68 64H69.12C71.1562 63.998 73.1085 63.1882 74.5483 61.7483C75.9882 60.3085 76.798 58.3562 76.8 56.32V19.2218L40.8742 39.04Z" fill="black"/>
<path d="M69.12 0H7.68C5.64376 0.00203319 3.6915 0.811826 2.25167 2.25166C0.811827 3.6915 0.00203328 5.64376 9.22547e-08 7.68V14.08C-8.6841e-05 14.309 0.0612668 14.5338 0.177663 14.7311C0.29406 14.9283 0.461236 15.0907 0.66176 15.2013L37.7818 35.6813C37.9711 35.7857 38.1838 35.8405 38.4 35.8405C38.6162 35.8405 38.8289 35.7857 39.0182 35.6813L76.1382 15.2013C76.3388 15.0907 76.5059 14.9283 76.6223 14.7311C76.7387 14.5338 76.8001 14.309 76.8 14.08V7.68C76.798 5.64376 75.9882 3.6915 74.5483 2.25166C73.1085 0.811826 71.1562 0.00203319 69.12 0V0Z" fill="black"/>
</svg>
