<?xml version="1.0" encoding="UTF-8"?> <svg xmlns="http://www.w3.org/2000/svg" xmlns:xlink="http://www.w3.org/1999/xlink" width="141" height="26" viewBox="0 0 141 26"><defs><path id="prefix__a" d="M0 0.296L19.795 0.296 19.795 26 0 26z"></path></defs><g fill="none" fill-rule="evenodd"><path fill="#333" d="M62 26L56.203 26 56.203 15.536 28.796 15.536 28.796 26 23 26 23 1 28.796 1 28.796 10.75 56.203 10.75 56.203 1 62 1zM68 26L74 26 74 1 68 1zM94 16.143L86.252 16.143 86.252 26 81 26 81 1 94 1 94 5.786 86.252 5.786 86.252 11.357 94 11.357zM116 5.786L110.666 5.786 110.666 26 105.333 26 105.333 5.786 100 5.786 100 1 116 1zM126.683 1L116 26h6.571l1.615-4.393h8.48L134.173 26H141l-9.582-25h-4.735zm1.872 8.786h.037l2.46 7.214h-5.14l2.643-7.214z"></path><mask id="prefix__b" fill="#fff"><use xlink:href="#prefix__a"></use></mask><path fill="#333" d="M15.909 7.406c-1.889-1.528-3.632-2.31-5.267-2.31-1.452 0-2.76.817-2.76 2.132 0 .712.218 1.21.944 1.636l.835.462 1.163.391.98.32c1.853.604 2.725.889 4.323 1.85.835.461 1.453.994 1.925 1.528.908 1.03 1.743 2.808 1.743 4.906 0 5.297-5.194 7.68-9.88 7.68-3.704 0-7.01-1.458-9.915-4.338L3.814 18c.835.782 1.49 1.35 1.925 1.671.872.675 2.542 1.493 4.25 1.493 1.997 0 3.559-.924 3.559-2.737 0-.747-.509-1.422-.944-1.85-.218-.212-.581-.425-1.126-.675l-1.199-.533-1.38-.498c-1.635-.604-2.506-.96-3.85-1.813-1.925-1.244-2.942-2.88-3.051-5.795 0-2.24.835-3.946 2.543-5.155C6.247.9 8.245.296 10.57.296c3.014 0 5.884 1.031 8.644 3.057L15.91 7.406z" mask="url(#prefix__b)"></path></g></svg> 